<svg xmlns="http://www.w3.org/2000/svg" width="30" height="30" viewBox="0 0 30 30">
    <path fill-rule="evenodd" d="M283 3242a15 15 0 1 1 15-15 15 15 0 0 1-15 15zm0-28.636A13.636 13.636 0 1 0 296.636 3227 13.637 13.637 0 0 0 283 3213.364zm12.216 14.754c-.011.12-.026.238-.04.357-.031.253-.07.5-.115.75-.024.128-.045.256-.072.382-.072.333-.155.661-.252.982a4.714 4.714 0 0 1-2.277-1.671c-.511-1.193-1.875-1.79-2.429-3.324-.916-2.538.3-2.471.469-4.049.08-.74-.469-.894-1.193-.6-1.687.695-2.259.426-2.6-.809s0-1.577 0-1.577a.863.863 0 0 1-.6-1.576 4.777 4.777 0 0 0 1.115-1.5 12.291 12.291 0 0 1 3.214 1.766l.035.026c.224.172.442.354.654.541l.111.1a12.3 12.3 0 0 1 1.607 1.772c.065.088.134.174.2.264.116.164.224.334.331.5.086.136.17.274.251.414.091.156.179.314.263.476.095.181.182.368.268.555.061.132.125.261.181.394q.2.476.355.97c.035.11.062.223.094.334.071.246.136.494.192.745.029.129.053.258.078.388q.071.38.117.769c.014.117.031.233.042.352.035.376.058.754.058 1.139s-.023.762-.057 1.13zm-12.259 9.195c-.341 1.918-1.235.554-1.534.085s-.767-.895-.639-2.855-1.236-.81-1.7-3.367.682-2.983 2.514-2.983 1.662.554 3.111 1.79.682 2.472-.043 3.409a8.211 8.211 0 0 0-1.709 3.921zm-.554-14.275c-1.066.468-2.642 1.491-2.727 2.471s-.937 1.576-1.193.554-.554-1.065-1.619-.511-.128 1.619.724 2.471.128.81.128.81c-3.835-1.833-4.475-3.324-4.475-3.324a5.778 5.778 0 0 1-1.45-3.492 12.3 12.3 0 0 1 3.307-4.4 7.956 7.956 0 0 0 2.149 1.713c.6.213 1.023-1.321 1.96-.98s.682-.256 1.875-.171.511 1.321-.17 1.619-2.343-.043-.98 1.279.639-.9 2.3-.9 1.96.6 2.088 1.407-.852.984-1.92 1.454zm9.567 8.16c-.256.831-1.065.363-1.47 0a.817.817 0 0 1 .064-1.32c.49-.3 1.662.489 1.406 1.322z" transform="translate(-268 -3212)"/>
</svg>
