<?xml version="1.0" encoding="UTF-8"?>
<svg id="Layer_2" data-name="Layer 2" xmlns="http://www.w3.org/2000/svg" xmlns:xlink="http://www.w3.org/1999/xlink" viewBox="0 0 233 233">
  <defs>
    <style>
      .cls-1 {
        fill: #fff;
        filter: url(#drop-shadow-1);
        stroke-width: 0px;
      }
    </style>
    <filter id="drop-shadow-1" filterUnits="userSpaceOnUse">
      <feOffset dx="0" dy="0"/>
      <feGaussianBlur result="blur" stdDeviation="8.55"/>
      <feFlood flood-color="#000" flood-opacity=".75"/>
      <feComposite in2="blur" operator="in"/>
      <feComposite in="SourceGraphic"/>
    </filter>
  </defs>
  <g id="Layer_1-2" data-name="Layer 1">
    <path class="cls-1" d="M93.76,156.26l63-40.5-63-40.5v81ZM116.26,205.76c-12.45,0-24.15-2.36-35.1-7.09-10.95-4.72-20.47-11.14-28.57-19.24-8.1-8.1-14.51-17.62-19.24-28.57s-7.09-22.65-7.09-35.1,2.36-24.15,7.09-35.1c4.73-10.95,11.14-20.47,19.24-28.57,8.1-8.1,17.63-14.51,28.57-19.24,10.95-4.72,22.65-7.09,35.1-7.09s24.15,2.36,35.1,7.09,20.47,11.14,28.57,19.24c8.1,8.1,14.51,17.62,19.24,28.57s7.09,22.65,7.09,35.1-2.36,24.15-7.09,35.1-11.14,20.47-19.24,28.57c-8.1,8.1-17.62,14.51-28.57,19.24-10.95,4.72-22.65,7.09-35.1,7.09ZM116.26,187.76c20.1,0,37.12-6.97,51.07-20.92,13.95-13.95,20.93-30.97,20.93-51.07s-6.98-37.12-20.93-51.07-30.98-20.92-51.07-20.92-37.12,6.97-51.07,20.92-20.92,30.97-20.92,51.07,6.97,37.12,20.92,51.07c13.95,13.95,30.97,20.92,51.07,20.92Z"/>
  </g>
</svg>